# xmcd CD database file
#
# Track frame offsets:
#	150
#	18990
#	38538
#	59834
#	81649
#	98992
#	121386
#	140368
#	171689
#	193015
#
# Disc length: 2810 seconds
#
# Revision: 1
# Processed by: cddbd v1.5.1PL2 Copyright (c) Steve Scherf et al.
# Submitted via: CDex 1.51
#
DISCID=920af80a
DTITLE=Coletanea - Love Collection
DYEAR=2006
DGENRE=Ballad
TTITLE0=Break Me UP - Black Male
TTITLE1=Fresh Celeste - Dont't Let This Be The End
TTITLE2=Monet - Leave The Lights On (Duet With Molan Thomaz)
TTITLE3=Center Piece - Marfin' Love
TTITLE4=Anne Lesear - Take Him Back (Taxi)
TTITLE5=Jesse James - I Can Do Bad By My Self
TTITLE6=Frederick - Games
TTITLE7=Richard Dimples - If It Aint't One Thing... It's Another
TTITLE8=Dimples - You Can Have My Heart
TTITLE9=New Cool Cat 
EXTD=YEAR: 2006
EXTT0=
EXTT1=
EXTT2=
EXTT3=
EXTT4=
EXTT5=
EXTT6=
EXTT7=
EXTT8=
EXTT9=
PLAYORDER=
